<svg width="32" height="32" viewBox="0 0 32 32" fill="none" xmlns="http://www.w3.org/2000/svg">
<path d="M19.8218 4.95421C19.6384 6.22149 18.492 7.12669 17.208 6.94565C15.9241 6.76461 15.0069 5.63311 15.1445 4.36583C15.2821 3.09855 16.4743 2.19335 17.7583 2.37439C19.0881 2.51017 19.9594 3.68693 19.8218 4.95421Z" fill="#6300DF"/>
<path d="M22.1169 26.2283L25.9229 23.3316L29.1328 20.9329C29.1787 20.9329 29.1787 20.8876 29.2245 20.8876C30.2792 20.1182 30.3709 18.6699 29.5914 17.6289C29.1328 17.0405 28.4908 16.7237 27.803 16.7237C27.2986 16.7237 26.7483 16.8595 26.2898 17.2215C26.1522 17.3573 26.0146 17.4478 25.8771 17.6289L19.6406 22.3812L19.5948 22.4264C19.2738 22.6527 17.944 23.5127 17.0727 23.6032C16.4307 23.739 15.7429 23.7842 15.055 23.6937C14.3672 23.6032 13.6794 23.3769 13.1291 23.0601L21.2915 16.8595L25.1892 13.8723C25.1892 13.8723 25.1892 13.8723 25.1892 13.827C24.5472 12.424 23.5843 11.2019 22.392 10.2515C20.9246 9.07473 19.1362 8.26004 17.1644 8.03374C15.1468 7.76218 13.2208 8.12426 11.5241 8.89369C10.1026 9.52733 8.86449 10.4778 7.85565 11.6998C6.6634 13.1481 5.83799 14.9133 5.56285 16.9047C5.28772 18.8509 5.65457 20.7518 6.38826 22.4264L5.47114 23.0148L0.9314 26.5904L0.885544 26.6356C0.426984 26.9977 0.105992 27.5408 0.0142799 28.1292C-0.123288 29.3512 0.747976 30.4827 1.98609 30.6638C2.62807 30.7543 3.2242 30.5733 3.68276 30.2112L9.13962 26.0925C10.1026 26.8619 11.1573 27.4956 12.3954 27.9029C13.0374 28.1292 13.7252 28.265 14.4131 28.3555C16.4307 28.6271 18.3567 28.265 20.0533 27.4956C20.6495 27.224 21.2456 26.9072 21.7959 26.4998C21.8417 26.4998 21.8876 26.4546 21.9334 26.4093L22.1169 26.2283ZM10.1026 17.4931C10.1943 16.8142 10.4236 16.1353 10.7446 15.5922C11.4783 14.1891 12.854 13.1481 14.4131 12.7861C15.055 12.605 15.7429 12.5598 16.4307 12.6503C17.1186 12.7408 17.8064 12.9671 18.3567 13.2839L10.2402 19.4845C10.0567 18.8509 10.0109 18.172 10.1026 17.4931ZM3.17834 30.3922L3.13249 30.4375L3.17834 30.3922Z" fill="#FF1472"/>
<path d="M31.2864 9.12003L26.013 13.1934C25.3252 11.8356 24.3622 10.5684 23.1699 9.57263L28.3058 5.68027C28.3975 5.63501 28.4434 5.58975 28.5351 5.54449C28.9478 5.27293 29.4522 5.18241 30.0025 5.22767C31.2864 5.40871 32.1577 6.54021 31.9743 7.76223C31.8826 8.35061 31.6533 8.80321 31.2864 9.12003Z" fill="#FFBF00"/>
<path d="M10.2398 8.35049C8.86407 9.07465 7.67182 10.1156 6.70884 11.3377L2.35252 5.68014C2.26081 5.58962 2.21495 5.4991 2.1691 5.45384C1.93982 5.00124 1.80225 4.50338 1.89396 4.00552C2.03153 2.73824 3.17793 1.8783 4.4619 2.01408C5.01217 2.05934 5.47073 2.3309 5.79172 2.69298L5.83758 2.64772L10.2398 8.35049Z" fill="#23A8E2"/>
</svg>
