
<svg xmlns="http://www.w3.org/2000/svg" width="231.636" height="37.98" viewBox="0 0 231.636 37.98"><defs><style>.a{fill:#fff;stroke:#333;stroke-width:0.25px;}</style></defs><g transform="translate(0.14 0.138)"><path class="a" d="M157.108,77.37V89.746H150.96V78.263a3.351,3.351,0,0,0-3.556-3.689c-2.231,0-3.8,1.309-3.8,4.165V89.746h-6.149V69.576H143.6v1.9c1.085-1.488,3.135-2.44,5.848-2.44C153.613,69.04,157.108,71.9,157.108,77.37Z" transform="translate(-96.686 -55.157)"/><path class="a" d="M163.16,76.218v7.14c0,1.725,1.508,1.9,4.22,1.725v5.474c-8.017.833-10.369-1.547-10.369-7.2v-7.14h-3.255V70.387h3.255V66.579l6.149-1.845v5.652h4.22v5.831Z" transform="translate(-92.49 -56.265)"/><path class="a" d="M185.633,78.917V91.293h-6.149V79.809a3.351,3.351,0,0,0-3.556-3.689c-2.231,0-3.8,1.309-3.8,4.165V91.293h-6.149V63.03h6.149v10c1.085-1.488,3.135-2.44,5.848-2.44C182.138,70.587,185.633,73.443,185.633,78.917Z" transform="translate(-89.343 -56.704)"/><path class="a" d="M202.989,69.466v20.17h-6.15v-1.9c-1.084,1.488-3.134,2.44-5.847,2.44-4.1,0-7.655-2.915-7.655-8.33V69.466h6.149V80.949a3.351,3.351,0,0,0,3.556,3.689c2.231,0,3.8-1.309,3.8-4.165V69.466Z" transform="translate(-84.875 -55.047)"/><path class="a" d="M215.026,65.9a3.677,3.677,0,1,1,3.677,3.629A3.707,3.707,0,0,1,215.026,65.9Zm.6,5.414h6.149v20.17h-6.149Z" transform="translate(-76.717 -56.899)"/><path class="a" d="M243.789,69.587v20.17H237.64v-1.9a7.67,7.67,0,0,1-6.088,2.439c-5.365,0-9.765-4.641-9.765-10.65s4.4-10.65,9.765-10.65a7.87,7.87,0,0,1,6.088,2.439v-1.9h6.149ZM237.64,79.7a4.883,4.883,0,1,0-4.883,4.939A4.652,4.652,0,0,0,237.64,79.7Z" transform="translate(-74.977 -55.169)"/><path class="a" d="M257.688,83.5c0,4.641-4.1,6.6-8.5,6.6-4.1,0-7.174-1.547-8.8-4.819l5.305-2.975a3.365,3.365,0,0,0,3.5,2.38c1.447,0,2.231-.416,2.231-1.25,0-2.2-10.067-1.071-10.067-8.032,0-4.4,3.737-6.6,8.017-6.6a8.83,8.83,0,0,1,7.957,4.344l-5.245,2.8a2.961,2.961,0,0,0-2.712-1.785c-1.085,0-1.687.416-1.687,1.13C247.621,77.55,257.688,76.063,257.688,83.5Z" transform="translate(-70.188 -55.218)"/><path class="a" d="M263.934,76.454v7.14c0,1.726,1.506,1.9,4.22,1.726v5.474c-8.019.833-10.369-1.547-10.369-7.2v-7.14H254.53V70.623h3.255V66.815l6.149-1.845v5.653h4.22v5.831Z" transform="translate(-66.548 -56.205)"/><path class="a" d="M266.275,65.9a3.678,3.678,0,1,1,3.678,3.629A3.709,3.709,0,0,1,266.275,65.9Zm.6,5.414h6.149v20.17h-6.149Z" transform="translate(-63.524 -56.899)"/><path class="a" d="M273.035,79.691a10.836,10.836,0,0,1,20.075-5.474l-5.365,3.094a4.255,4.255,0,0,0-3.979-2.261,4.7,4.7,0,0,0,0,9.4,4.194,4.194,0,0,0,3.979-2.261l5.365,3.034a10.42,10.42,0,0,1-9.223,5.176A10.625,10.625,0,0,1,273.035,79.691Z" transform="translate(-61.784 -55.157)"/><path class="a" d="M209.382,83.984l3.074-4.165,4.641-6.307V69.466H201.544v5.653h7.294l-2.291,3.154-.421.6-5,6.783V89.7H217.46V84.043h-8.078Z" transform="translate(-80.296 -55.047)"/><path class="a" d="M208.813,75.118h-7.355V69.466h11.575" transform="translate(-80.21 -55.047)"/><g transform="translate(0 0.001)"><path class="a" d="M127.02,61.791a3.048,3.048,0,0,1-3.435,2.618,3.115,3.115,0,0,1-2.714-3.391,3.1,3.1,0,0,1,6.149.773Z" transform="translate(-100.96 -57.905)"/><path class="a" d="M134.109,88.252l5-3.808,4.22-3.154c.06,0,.06-.059.121-.059a3,3,0,0,0,.482-4.284,2.953,2.953,0,0,0-2.35-1.19,3.186,3.186,0,0,0-1.989.655,4.569,4.569,0,0,0-.543.535l-8.2,6.248-.06.059a9.492,9.492,0,0,1-3.316,1.547,7.89,7.89,0,0,1-2.652.119,7.053,7.053,0,0,1-2.532-.833l10.731-8.152,5.124-3.927v-.059a12.857,12.857,0,0,0-3.677-4.7,13.719,13.719,0,0,0-14.288-1.785,13.2,13.2,0,0,0-4.822,3.689,13.661,13.661,0,0,0-3.014,6.842,13.41,13.41,0,0,0,1.085,7.259l-1.206.773-5.968,4.7-.06.059a3.15,3.15,0,0,0-1.146,1.963,3.045,3.045,0,0,0,2.593,3.332,2.9,2.9,0,0,0,2.229-.6l7.175-5.414a13.606,13.606,0,0,0,4.279,2.38,13.2,13.2,0,0,0,2.653.6,13.5,13.5,0,0,0,7.415-1.13,12.578,12.578,0,0,0,2.29-1.309c.06,0,.121-.06.181-.119ZM118.314,76.768a6.845,6.845,0,0,1,.844-2.5,7.369,7.369,0,0,1,4.824-3.689,6.6,6.6,0,0,1,2.652-.178,7.053,7.053,0,0,1,2.532.833L118.5,79.386A6.351,6.351,0,0,1,118.314,76.768Zm-9.1,16.957-.06.059Z" transform="translate(-105.033 -56.4)"/><path class="a" d="M139.929,66.494,133,71.849a15.114,15.114,0,0,0-3.738-4.76l6.752-5.117c.121-.059.181-.119.3-.178a3,3,0,0,1,1.93-.417,2.956,2.956,0,0,1,2.592,3.332A2.837,2.837,0,0,1,139.929,66.494Z" transform="translate(-98.797 -57.134)"/><path class="a" d="M117.993,66.348a14.65,14.65,0,0,0-4.642,3.927l-5.726-7.438c-.121-.119-.181-.238-.241-.3a3.05,3.05,0,0,1,3.014-4.522,2.619,2.619,0,0,1,1.748.893l.06-.059Z" transform="translate(-104.531 -58)"/></g></g></svg>